<svg width="219" height="30" viewBox="0 0 219 30" fill="none" xmlns="http://www.w3.org/2000/svg">
<path d="M14.156 29.432C12.164 29.432 10.328 29.12 8.648 28.496C6.992 27.848 5.54 26.936 4.292 25.76C3.068 24.584 2.108 23.204 1.412 21.62C0.74 20.036 0.404 18.296 0.404 16.4C0.404 14.504 0.74 12.764 1.412 11.18C2.108 9.596 3.08 8.216 4.328 7.04C5.576 5.864 7.04 4.964 8.72 4.34C10.4 3.692 12.248 3.368 14.264 3.368C16.496 3.368 18.5 3.74 20.276 4.484C22.076 5.228 23.588 6.308 24.812 7.724L21.068 11.18C20.156 10.22 19.16 9.512 18.08 9.056C17 8.576 15.824 8.336 14.552 8.336C13.328 8.336 12.212 8.528 11.204 8.912C10.196 9.296 9.32 9.848 8.576 10.568C7.856 11.288 7.292 12.14 6.884 13.124C6.5 14.108 6.308 15.2 6.308 16.4C6.308 17.576 6.5 18.656 6.884 19.64C7.292 20.624 7.856 21.488 8.576 22.232C9.32 22.952 10.184 23.504 11.168 23.888C12.176 24.272 13.28 24.464 14.48 24.464C15.632 24.464 16.748 24.284 17.828 23.924C18.932 23.54 20 22.904 21.032 22.016L24.344 26.228C22.976 27.26 21.38 28.052 19.556 28.604C17.756 29.156 15.956 29.432 14.156 29.432ZM19.016 25.472V16.004H24.344V26.228L19.016 25.472ZM29.3654 29V9.632H34.7294V15.104L33.9734 13.52C34.5494 12.152 35.4734 11.12 36.7454 10.424C38.0174 9.704 39.5654 9.344 41.3894 9.344V14.528C41.1494 14.504 40.9334 14.492 40.7414 14.492C40.5494 14.468 40.3454 14.456 40.1294 14.456C38.5934 14.456 37.3454 14.9 36.3854 15.788C35.4494 16.652 34.9814 18.008 34.9814 19.856V29H29.3654ZM54.2001 29.288C51.9921 29.288 50.0481 28.856 48.3681 27.992C46.7121 27.128 45.4281 25.952 44.5161 24.464C43.6041 22.952 43.1481 21.236 43.1481 19.316C43.1481 17.372 43.5921 15.656 44.4801 14.168C45.3921 12.656 46.6281 11.48 48.1881 10.64C49.7481 9.776 51.5121 9.344 53.4801 9.344C55.3761 9.344 57.0801 9.752 58.5921 10.568C60.1281 11.36 61.3401 12.512 62.2281 14.024C63.1161 15.512 63.5601 17.3 63.5601 19.388C63.5601 19.604 63.5481 19.856 63.5241 20.144C63.5001 20.408 63.4761 20.66 63.4521 20.9H47.7201V17.624H60.5001L58.3401 18.596C58.3401 17.588 58.1361 16.712 57.7281 15.968C57.3201 15.224 56.7561 14.648 56.0361 14.24C55.3161 13.808 54.4761 13.592 53.5161 13.592C52.5561 13.592 51.7041 13.808 50.9601 14.24C50.2401 14.648 49.6761 15.236 49.2681 16.004C48.8601 16.748 48.6561 17.636 48.6561 18.668V19.532C48.6561 20.588 48.8841 21.524 49.3401 22.34C49.8201 23.132 50.4801 23.744 51.3201 24.176C52.1841 24.584 53.1921 24.788 54.3441 24.788C55.3761 24.788 56.2761 24.632 57.0441 24.32C57.8361 24.008 58.5561 23.54 59.2041 22.916L62.1921 26.156C61.3041 27.164 60.1881 27.944 58.8441 28.496C57.5001 29.024 55.9521 29.288 54.2001 29.288ZM76.911 29.288C74.703 29.288 72.759 28.856 71.079 27.992C69.423 27.128 68.139 25.952 67.227 24.464C66.315 22.952 65.859 21.236 65.859 19.316C65.859 17.372 66.303 15.656 67.191 14.168C68.103 12.656 69.339 11.48 70.899 10.64C72.459 9.776 74.223 9.344 76.191 9.344C78.087 9.344 79.791 9.752 81.303 10.568C82.839 11.36 84.051 12.512 84.939 14.024C85.827 15.512 86.271 17.3 86.271 19.388C86.271 19.604 86.259 19.856 86.235 20.144C86.211 20.408 86.187 20.66 86.163 20.9H70.431V17.624H83.211L81.051 18.596C81.051 17.588 80.847 16.712 80.439 15.968C80.031 15.224 79.467 14.648 78.747 14.24C78.027 13.808 77.187 13.592 76.227 13.592C75.267 13.592 74.415 13.808 73.671 14.24C72.951 14.648 72.387 15.236 71.979 16.004C71.571 16.748 71.367 17.636 71.367 18.668V19.532C71.367 20.588 71.595 21.524 72.051 22.34C72.531 23.132 73.191 23.744 74.031 24.176C74.895 24.584 75.903 24.788 77.055 24.788C78.087 24.788 78.987 24.632 79.755 24.32C80.547 24.008 81.267 23.54 81.915 22.916L84.903 26.156C84.015 27.164 82.899 27.944 81.555 28.496C80.211 29.024 78.663 29.288 76.911 29.288ZM101.782 9.344C103.318 9.344 104.686 9.656 105.886 10.28C107.11 10.88 108.07 11.816 108.766 13.088C109.462 14.336 109.81 15.944 109.81 17.912V29H104.194V18.776C104.194 17.216 103.846 16.064 103.15 15.32C102.478 14.576 101.518 14.204 100.27 14.204C99.382 14.204 98.578 14.396 97.858 14.78C97.162 15.14 96.61 15.704 96.202 16.472C95.818 17.24 95.626 18.224 95.626 19.424V29H90.01V9.632H95.374V14.996L94.366 13.376C95.062 12.08 96.058 11.084 97.354 10.388C98.65 9.692 100.126 9.344 101.782 9.344Z" fill="#208B3A"/>
<path d="M127.357 29.432C125.413 29.432 123.601 29.12 121.921 28.496C120.265 27.848 118.825 26.936 117.601 25.76C116.377 24.584 115.417 23.204 114.721 21.62C114.049 20.036 113.713 18.296 113.713 16.4C113.713 14.504 114.049 12.764 114.721 11.18C115.417 9.596 116.377 8.216 117.601 7.04C118.849 5.864 120.301 4.964 121.957 4.34C123.613 3.692 125.425 3.368 127.393 3.368C129.577 3.368 131.545 3.752 133.297 4.52C135.073 5.264 136.561 6.368 137.761 7.832L134.017 11.288C133.153 10.304 132.193 9.572 131.137 9.092C130.081 8.588 128.929 8.336 127.681 8.336C126.505 8.336 125.425 8.528 124.441 8.912C123.457 9.296 122.605 9.848 121.885 10.568C121.165 11.288 120.601 12.14 120.193 13.124C119.809 14.108 119.617 15.2 119.617 16.4C119.617 17.6 119.809 18.692 120.193 19.676C120.601 20.66 121.165 21.512 121.885 22.232C122.605 22.952 123.457 23.504 124.441 23.888C125.425 24.272 126.505 24.464 127.681 24.464C128.929 24.464 130.081 24.224 131.137 23.744C132.193 23.24 133.153 22.484 134.017 21.476L137.761 24.932C136.561 26.396 135.073 27.512 133.297 28.28C131.545 29.048 129.565 29.432 127.357 29.432ZM153.077 29V25.22L152.717 24.392V17.624C152.717 16.424 152.345 15.488 151.601 14.816C150.881 14.144 149.765 13.808 148.253 13.808C147.221 13.808 146.201 13.976 145.193 14.312C144.209 14.624 143.369 15.056 142.673 15.608L140.657 11.684C141.713 10.94 142.985 10.364 144.473 9.956C145.961 9.548 147.473 9.344 149.009 9.344C151.961 9.344 154.253 10.04 155.885 11.432C157.517 12.824 158.333 14.996 158.333 17.948V29H153.077ZM147.173 29.288C145.661 29.288 144.365 29.036 143.285 28.532C142.205 28.004 141.377 27.296 140.801 26.408C140.225 25.52 139.937 24.524 139.937 23.42C139.937 22.268 140.213 21.26 140.765 20.396C141.341 19.532 142.241 18.86 143.465 18.38C144.689 17.876 146.285 17.624 148.253 17.624H153.401V20.9H148.865C147.545 20.9 146.633 21.116 146.129 21.548C145.649 21.98 145.409 22.52 145.409 23.168C145.409 23.888 145.685 24.464 146.237 24.896C146.813 25.304 147.593 25.508 148.577 25.508C149.513 25.508 150.353 25.292 151.097 24.86C151.841 24.404 152.381 23.744 152.717 22.88L153.581 25.472C153.173 26.72 152.429 27.668 151.349 28.316C150.269 28.964 148.877 29.288 147.173 29.288ZM174.864 29.288C173.16 29.288 171.696 28.928 170.472 28.208C169.248 27.488 168.312 26.396 167.664 24.932C167.016 23.444 166.692 21.572 166.692 19.316C166.692 17.036 167.028 15.164 167.7 13.7C168.396 12.236 169.356 11.144 170.58 10.424C171.804 9.704 173.232 9.344 174.864 9.344C176.688 9.344 178.32 9.752 179.76 10.568C181.224 11.384 182.376 12.536 183.216 14.024C184.08 15.512 184.512 17.276 184.512 19.316C184.512 21.332 184.08 23.084 183.216 24.572C182.376 26.06 181.224 27.224 179.76 28.064C178.32 28.88 176.688 29.288 174.864 29.288ZM163.416 29V2.288H169.032V13.556L168.672 19.28L168.78 25.04V29H163.416ZM173.892 24.68C174.828 24.68 175.656 24.464 176.376 24.032C177.12 23.6 177.708 22.988 178.14 22.196C178.596 21.38 178.824 20.42 178.824 19.316C178.824 18.188 178.596 17.228 178.14 16.436C177.708 15.644 177.12 15.032 176.376 14.6C175.656 14.168 174.828 13.952 173.892 13.952C172.956 13.952 172.116 14.168 171.372 14.6C170.628 15.032 170.04 15.644 169.608 16.436C169.176 17.228 168.96 18.188 168.96 19.316C168.96 20.42 169.176 21.38 169.608 22.196C170.04 22.988 170.628 23.6 171.372 24.032C172.116 24.464 172.956 24.68 173.892 24.68ZM188.272 29V9.632H193.888V29H188.272ZM191.08 6.932C190.048 6.932 189.208 6.632 188.56 6.032C187.912 5.432 187.588 4.688 187.588 3.8C187.588 2.912 187.912 2.168 188.56 1.568C189.208 0.967998 190.048 0.667998 191.08 0.667998C192.112 0.667998 192.952 0.955998 193.6 1.532C194.248 2.084 194.572 2.804 194.572 3.692C194.572 4.628 194.248 5.408 193.6 6.032C192.976 6.632 192.136 6.932 191.08 6.932ZM210.872 9.344C212.408 9.344 213.776 9.656 214.976 10.28C216.2 10.88 217.16 11.816 217.856 13.088C218.552 14.336 218.9 15.944 218.9 17.912V29H213.284V18.776C213.284 17.216 212.936 16.064 212.24 15.32C211.568 14.576 210.608 14.204 209.36 14.204C208.472 14.204 207.668 14.396 206.948 14.78C206.252 15.14 205.7 15.704 205.292 16.472C204.908 17.24 204.716 18.224 204.716 19.424V29H199.1V9.632H204.464V14.996L203.456 13.376C204.152 12.08 205.148 11.084 206.444 10.388C207.74 9.692 209.216 9.344 210.872 9.344Z" fill="white"/>
</svg>
